<?xml version="1.0" standalone="no"?>
<!DOCTYPE svg PUBLIC "-//W3C//DTD SVG 20010904//EN"
 "http://www.w3.org/TR/2001/REC-SVG-20010904/DTD/svg10.dtd">
<svg version="1.0" xmlns="http://www.w3.org/2000/svg"
 width="1216.000000pt" height="1216.000000pt" viewBox="0 0 1216.000000 1216.000000"
 preserveAspectRatio="xMidYMid meet">
<metadata>
Created by potrace 1.11, written by Peter Selinger 2001-2013
</metadata>
<g transform="translate(0.000000,1216.000000) scale(0.100000,-0.100000)"
fill="#000000" stroke="none">
<path d="M5825 12023 c-613 -23 -1264 -154 -1840 -368 -632 -236 -1210 -573
-1750 -1021 -162 -134 -566 -537 -707 -704 -772 -918 -1234 -1986 -1372 -3175
-54 -465 -45 -1049 25 -1530 365 -2536 2350 -4565 4884 -4994 605 -103 1281
-108 1889 -15 1091 166 2090 621 2946 1342 167 141 570 545 704 707 817 985
1276 2112 1377 3385 15 193 15 689 0 875 -41 504 -131 960 -277 1406 -670
2051 -2410 3586 -4520 3988 -233 45 -398 66 -734 96 -70 6 -520 12 -625 8z
m580 -213 c796 -53 1521 -248 2216 -596 1524 -762 2635 -2169 3019 -3823 63
-271 101 -513 135 -861 3 -30 8 -179 11 -330 16 -665 -78 -1286 -291 -1925
-368 -1107 -1064 -2072 -2000 -2774 -830 -623 -1794 -1002 -2840 -1115 -196
-22 -569 -38 -700 -32 -60 3 -164 8 -230 12 -370 17 -796 87 -1191 195 -1337
365 -2509 1221 -3276 2394 -1003 1531 -1211 3457 -559 5172 509 1338 1525
2459 2806 3093 261 129 470 215 740 305 476 158 981 258 1425 281 69 4 127 8
128 10 9 7 474 3 607 -6z"/>
<path d="M5745 11679 c-1660 -100 -3159 -905 -4161 -2231 -598 -793 -971
-1723 -1088 -2713 -42 -352 -47 -906 -11 -1230 76 -701 245 -1289 545 -1900
293 -596 667 -1111 1139 -1567 1283 -1239 3050 -1790 4818 -1503 2185 355
3976 1996 4524 4145 79 310 136 664 160 987 15 210 6 796 -15 988 -60 551
-187 1055 -389 1549 -78 192 -262 561 -367 736 -251 418 -515 756 -859 1101
-213 212 -361 341 -583 509 -850 642 -1809 1014 -2878 1115 -205 19 -635 27
-835 14z m755 -132 c14 -3 61 -8 105 -11 125 -10 411 -53 573 -87 1449 -298
2726 -1178 3521 -2427 482 -756 760 -1580 843 -2502 19 -213 16 -742 -6 -955
-131 -1285 -654 -2415 -1536 -3319 -827 -846 -1860 -1388 -3028 -1586 -298
-50 -450 -62 -832 -65 -379 -4 -497 2 -764 36 -403 51 -836 156 -1207 294
-603 225 -1157 550 -1659 974 -266 225 -600 579 -818 869 -715 949 -1099 2080
-1106 3252 -2 371 16 612 69 940 299 1839 1525 3410 3240 4152 553 240 1207
400 1765 434 63 3 117 8 120 11 6 6 687 -4 720 -10z"/>
<path d="M6093 10991 c-41 -26 -91 -94 -148 -201 l-44 -85 -1 85 c-1 113 -22
163 -82 190 -51 23 -118 26 -156 6 -53 -27 -75 -62 -80 -123 -8 -93 30 -142
118 -153 l45 -5 3 -213 2 -213 82 3 82 3 28 125 c33 149 57 219 110 323 46 89
73 112 87 74 5 -14 10 -124 11 -246 0 -122 3 -235 7 -251 l6 -31 66 5 c36 3
70 5 75 6 11 0 -2 586 -15 626 -25 79 -127 118 -196 75z"/>
<path d="M5255 10943 c-32 -7 -61 -15 -62 -17 -2 -1 13 -72 31 -157 19 -84 34
-155 32 -156 -1 -1 -39 61 -83 140 l-81 142 -42 -2 c-23 -1 -48 -7 -55 -13 -9
-7 -15 -57 -20 -159 -4 -82 -10 -153 -14 -159 -4 -7 -15 28 -25 76 -31 150
-61 185 -164 190 -54 2 -73 -1 -100 -17 -93 -59 -97 -198 -7 -257 18 -12 44
-17 80 -16 l53 1 17 -77 c41 -186 74 -324 79 -329 6 -6 116 14 151 27 21 8 23
17 30 112 4 57 8 110 10 118 1 8 6 59 10 113 l7 99 100 -169 c55 -92 106 -178
113 -190 l14 -21 81 18 c45 10 83 20 86 22 2 3 -31 159 -74 349 -57 253 -82
344 -92 345 -8 1 -42 -5 -75 -13z"/>
<path d="M6640 10949 c-44 -18 -90 -71 -105 -123 -30 -100 -15 -172 44 -211
l29 -19 -28 -18 c-43 -26 -62 -71 -68 -165 -8 -135 13 -153 219 -188 195 -33
219 -33 264 6 20 18 41 41 46 52 15 27 109 590 101 598 -8 7 -143 32 -147 27
-1 -2 -21 -120 -45 -263 -44 -264 -52 -300 -76 -309 -19 -7 -174 21 -190 35
-16 13 -18 76 -4 113 15 39 42 49 107 36 31 -5 58 -8 60 -6 2 2 6 26 10 53 l5
50 -58 8 c-73 9 -119 27 -133 53 -17 32 -13 35 15 13 38 -30 119 -29 165 2 65
43 76 143 23 206 -42 51 -166 77 -234 50z"/>
<path d="M7514 10739 c-109 -14 -123 -34 -233 -335 -50 -138 -91 -255 -91
-260 0 -6 37 -23 82 -39 78 -27 82 -28 92 -10 22 37 124 171 144 188 20 18 21
18 50 -3 16 -12 46 -24 68 -27 74 -9 144 66 144 155 0 36 -6 50 -33 77 -31 31
-95 58 -120 50 -7 -2 -25 -6 -40 -10 -16 -3 -48 -24 -73 -47 l-44 -41 13 34
c8 19 21 55 31 80 12 35 25 50 47 59 81 34 279 -51 279 -120 0 -9 -40 -127
-90 -262 -49 -135 -90 -250 -90 -255 0 -9 138 -59 144 -52 15 17 196 538 196
565 0 25 4 34 16 34 27 0 78 36 97 69 21 35 23 33 -81 71 l-63 23 -23 -22
c-29 -28 -45 -27 -114 8 -114 57 -221 81 -308 70z"/>
<path d="M4179 10629 c-35 -17 -65 -32 -66 -33 -5 -5 230 -520 249 -549 26
-37 68 -57 121 -57 56 0 126 36 150 78 39 66 15 165 -50 207 -21 14 -40 16
-93 12 l-67 -6 -83 185 c-46 102 -86 187 -90 189 -4 2 -36 -9 -71 -26z"/>
<path d="M3845 10479 c-33 -16 -61 -33 -63 -38 -4 -11 210 -489 240 -539 26
-42 65 -62 123 -62 125 0 204 107 157 213 -29 64 -70 91 -135 85 -29 -3 -58
-7 -65 -9 -8 -3 -41 60 -93 176 -45 99 -86 185 -93 191 -8 9 -26 4 -71 -17z"/>
<path d="M8193 10421 c-36 -23 -88 -95 -79 -109 7 -11 112 -72 124 -72 4 0 16
13 25 29 25 43 50 47 113 16 59 -29 79 -54 68 -88 -4 -12 -62 -119 -129 -237
-67 -118 -127 -224 -133 -236 -10 -19 -5 -24 54 -58 36 -21 68 -35 72 -32 3 4
70 120 149 259 126 221 143 257 143 297 0 58 -25 98 -92 149 -117 88 -250 123
-315 82z"/>
<path d="M3502 10245 c-50 -34 -51 -37 -37 -58 8 -12 21 -42 30 -66 18 -53 9
-95 -30 -131 l-25 -23 0 26 c0 17 -14 41 -38 67 -34 35 -45 40 -82 40 -53 0
-124 -39 -145 -80 -21 -41 -19 -109 5 -148 65 -106 203 -92 341 36 110 101
134 195 79 310 -16 34 -33 62 -37 62 -5 0 -32 -16 -61 -35z"/>
<path d="M8825 10015 c-29 -15 -65 -50 -65 -64 0 -9 106 -91 118 -91 5 0 15 7
22 15 43 52 210 -58 210 -138 0 -23 -14 -49 -48 -92 l-47 -59 -7 59 c-9 71
-43 125 -107 170 -37 26 -51 30 -110 30 -84 0 -122 -24 -202 -123 -93 -116
-106 -159 -69 -232 23 -46 82 -88 132 -96 68 -11 150 50 164 121 9 48 -1 78
-38 121 l-32 36 32 29 c39 35 43 35 79 5 25 -22 28 -31 31 -105 5 -105 -22
-199 -78 -269 l-39 -50 54 -46 c29 -25 58 -46 64 -46 13 0 367 440 375 468 5
14 18 21 52 25 48 5 97 34 101 58 2 13 -90 93 -121 105 -8 3 -26 -2 -40 -11
-25 -17 -26 -17 -88 42 -139 132 -259 180 -343 138z"/>
<path d="M3720 9954 c-19 -14 -42 -29 -50 -34 -13 -7 -11 -17 13 -64 37 -77
35 -116 -11 -169 -14 -16 -16 -15 -32 21 -39 87 -116 114 -195 69 -80 -45
-104 -120 -65 -198 59 -114 205 -105 343 21 112 102 138 204 82 315 -17 33
-34 60 -40 62 -5 1 -26 -9 -45 -23z"/>
<path d="M5835 9974 c-22 -2 -96 -9 -164 -15 -366 -31 -775 -134 -1125 -280
-1187 -499 -2058 -1563 -2305 -2819 -58 -292 -75 -513 -68 -853 12 -599 136
-1103 403 -1637 205 -409 431 -718 760 -1040 808 -790 1881 -1180 3014 -1094
1394 105 2636 975 3223 2257 245 536 359 1101 344 1705 -7 263 -25 430 -72
667 -122 614 -381 1167 -782 1671 -123 154 -442 471 -603 598 -581 460 -1240
733 -1980 821 -127 15 -557 28 -645 19z m660 -148 c453 -61 826 -173 1210
-362 771 -379 1416 -1049 1765 -1834 531 -1194 402 -2593 -339 -3660 -240
-346 -575 -684 -926 -935 -945 -674 -2195 -865 -3311 -504 -463 150 -885 383
-1258 695 -151 127 -404 384 -519 529 -457 575 -728 1241 -808 1985 -16 152
-17 563 0 719 107 1033 600 1936 1411 2586 115 92 367 260 508 339 440 246
948 401 1487 455 133 14 649 5 780 -13z"/>
<path d="M5998 9441 c-50 -58 -49 -48 -37 -342 6 -151 12 -275 14 -277 1 -2
20 -4 41 -5 48 -3 51 8 54 163 0 63 5 180 9 259 9 144 9 145 -16 183 -29 43
-41 46 -65 19z"/>
<path d="M5580 9369 l-22 -52 37 -126 c20 -69 45 -153 55 -186 27 -90 58 -196
65 -228 5 -26 8 -28 38 -22 49 11 56 20 46 63 -11 51 -75 381 -90 470 -11 66
-16 76 -50 102 -20 17 -41 30 -47 30 -5 0 -19 -23 -32 -51z"/>
<path d="M6405 9403 c-22 -9 -43 -20 -46 -25 -5 -8 -26 -101 -53 -238 -8 -41
-27 -134 -43 -207 -15 -72 -25 -134 -22 -137 2 -3 23 -8 45 -12 l41 -6 15 44
c8 23 24 75 36 113 125 425 117 392 101 437 -9 23 -20 43 -25 44 -5 2 -27 -4
-49 -13z"/>
<path d="M6759 9279 c-53 -23 -54 -25 -129 -209 -29 -69 -66 -156 -82 -195
-78 -179 -76 -167 -34 -199 19 -14 37 -26 40 -26 2 0 32 53 67 118 34 64 76
142 92 172 117 217 127 239 127 283 0 53 -8 77 -24 77 -6 -1 -32 -10 -57 -21z"/>
<path d="M5218 9263 c-3 -10 -6 -42 -7 -71 -2 -45 4 -63 37 -125 22 -40 58
-106 79 -147 137 -259 177 -330 188 -330 6 0 26 15 43 33 l32 33 -76 170 c-42
93 -91 201 -108 239 -18 39 -43 93 -56 121 -18 41 -31 55 -66 73 -54 26 -60
26 -66 4z"/>
<path d="M7037 9082 c-24 -6 -48 -39 -148 -197 -65 -104 -124 -201 -131 -215
-7 -14 -28 -47 -45 -75 -18 -27 -33 -56 -33 -65 1 -19 47 -73 59 -68 7 2 90
110 253 328 10 14 38 50 61 80 83 109 88 119 85 169 -3 45 -4 46 -38 48 -19 0
-48 -2 -63 -5z"/>
<path d="M4860 9002 c0 -59 5 -70 65 -141 64 -76 104 -124 140 -167 22 -26 58
-69 80 -94 22 -26 74 -88 115 -138 41 -50 78 -91 82 -92 15 0 60 79 52 92 -4
7 -80 109 -168 227 -161 213 -184 243 -221 296 -43 61 -63 75 -105 75 l-40 0
0 -58z"/>
<path d="M7188 8736 c-436 -440 -420 -423 -409 -443 6 -10 20 -29 31 -42 26
-30 38 -25 122 54 35 33 104 96 153 140 49 44 119 107 155 141 36 34 81 75
100 91 25 22 37 44 46 82 6 28 9 53 6 56 -3 3 -32 5 -64 5 l-58 0 -82 -84z"/>
<path d="M4670 8721 l0 -58 69 -59 c38 -32 79 -68 92 -79 105 -88 208 -175
254 -215 114 -100 164 -140 174 -140 6 0 20 18 31 39 l20 40 -29 28 c-58 57
-421 400 -505 476 -21 20 -40 27 -67 27 l-39 0 0 -59z"/>
<path d="M5995 8720 c-3 -11 -4 -28 0 -39 3 -10 -5 -36 -20 -62 -28 -50 -31
-77 -10 -105 15 -19 20 -66 9 -77 -4 -3 -13 0 -21 8 -21 22 -30 18 -36 -14 -4
-17 -33 -59 -65 -95 -73 -80 -79 -108 -56 -247 14 -84 15 -104 4 -125 -20 -36
-40 -31 -40 10 0 35 -34 106 -51 106 -5 0 -9 -9 -9 -21 0 -12 -31 -53 -74 -98
-102 -107 -119 -143 -124 -261 -3 -89 -2 -98 26 -152 l29 -58 -49 0 -48 0 0
-80 0 -80 44 0 c67 0 71 -9 72 -184 1 -225 35 -329 143 -433 l53 -53 -36 -40
c-20 -22 -36 -44 -36 -49 0 -5 23 -36 50 -69 28 -33 50 -65 50 -70 0 -6 -21
-28 -46 -49 l-46 -38 6 -120 c3 -66 9 -164 12 -217 l7 -98 -29 10 c-47 15
-247 30 -410 30 -175 0 -329 -13 -467 -41 -100 -19 -296 -73 -326 -89 -28 -15
-130 -60 -136 -60 -3 0 -24 -12 -46 -26 -39 -24 -42 -25 -66 -9 -41 27 -138
127 -160 165 -12 19 -31 65 -43 102 -42 125 -17 290 60 408 45 67 111 120 150
120 51 0 132 -45 192 -105 79 -80 88 -74 88 55 0 74 3 100 13 99 6 0 39 -31
72 -68 46 -51 64 -80 74 -119 11 -45 16 -52 37 -52 25 0 27 3 28 59 1 29 6 36
26 41 28 7 39 38 18 51 -7 5 -28 6 -46 3 -30 -6 -37 -2 -95 61 -34 37 -63 71
-65 75 -1 4 35 10 80 14 46 3 93 9 106 12 76 21 -59 149 -250 238 -126 59
-232 80 -398 80 -161 1 -250 -15 -378 -65 -219 -87 -381 -259 -457 -484 -43
-127 -43 -363 0 -490 26 -76 88 -196 133 -258 37 -49 124 -131 193 -179 13
-10 43 -31 66 -48 24 -16 45 -30 48 -30 4 0 113 -67 124 -76 2 -2 -10 -32 -26
-67 -21 -42 -37 -103 -52 -187 -67 -394 36 -685 307 -864 101 -67 210 -111
340 -137 l110 -21 103 22 c206 44 373 155 481 319 55 85 83 165 93 271 8 88
-8 220 -36 294 -46 124 -192 300 -341 411 -37 28 -67 53 -67 56 -1 8 123 53
184 68 105 26 283 35 447 22 89 -6 164 -14 167 -17 3 -3 1 -8 -5 -12 -31 -22
-161 -216 -201 -303 -71 -151 -123 -387 -123 -554 0 -80 16 -203 36 -275 53
-189 199 -393 394 -551 l89 -72 -110 -115 c-89 -93 -117 -131 -152 -200 l-42
-86 0 -120 c0 -120 1 -122 43 -219 44 -101 83 -170 103 -182 6 -4 17 -1 25 7
13 12 12 23 -2 79 -20 79 -15 203 12 270 31 76 94 161 165 224 37 33 74 61 82
63 11 2 15 -16 19 -85 3 -49 11 -98 18 -110 12 -19 11 -24 -18 -48 -27 -22
-32 -34 -32 -70 0 -39 10 -68 59 -180 10 -22 24 -57 32 -78 7 -20 23 -47 36
-59 29 -27 44 -16 85 66 35 70 98 234 98 256 0 9 -14 33 -32 54 -29 35 -30 41
-20 70 7 18 12 67 12 109 0 55 4 77 13 77 21 0 133 -98 175 -153 49 -65 66
-98 88 -166 21 -67 24 -254 5 -290 -14 -26 -3 -45 21 -36 24 9 114 192 133
270 52 209 -3 360 -204 560 -82 81 -89 91 -73 103 100 74 226 196 296 287 57
73 73 99 128 205 10 20 30 76 45 125 26 85 28 101 28 275 0 109 -5 199 -11
220 -7 19 -17 62 -24 95 -31 155 -129 351 -244 490 l-49 60 64 8 c101 14 406
13 486 -1 77 -13 218 -55 243 -72 13 -9 12 -13 -9 -27 -96 -68 -195 -162 -276
-263 -93 -117 -130 -204 -144 -338 -23 -219 34 -380 184 -527 110 -107 234
-173 386 -205 l105 -23 121 26 c311 65 525 242 614 507 28 84 33 111 37 237 6
184 -22 351 -75 456 -13 27 -23 50 -21 51 2 2 46 29 98 61 190 116 285 199
366 320 87 130 123 247 131 422 5 104 2 137 -17 219 -56 242 -219 436 -450
535 -132 56 -221 73 -385 73 -126 1 -165 -3 -245 -23 -160 -41 -295 -112 -402
-214 -67 -63 -49 -82 85 -93 48 -4 87 -10 87 -13 -1 -3 -29 -37 -64 -74 -59
-64 -65 -68 -102 -65 -34 3 -39 0 -42 -19 -3 -17 4 -26 24 -33 23 -9 26 -14
21 -44 -6 -36 6 -56 33 -56 19 0 40 40 40 76 0 16 21 47 67 94 36 39 70 70 74
70 5 0 10 -46 11 -102 4 -128 12 -132 94 -51 65 64 116 93 179 101 37 4 45 0
93 -43 37 -34 64 -71 94 -133 l43 -85 0 -127 c0 -126 0 -126 -37 -200 -39 -78
-92 -141 -160 -190 l-39 -29 -87 43 c-48 24 -98 47 -112 51 -14 4 -29 11 -35
15 -5 5 -50 20 -100 35 -253 75 -474 101 -779 92 -105 -4 -224 -11 -265 -17
-40 -6 -75 -9 -78 -7 -2 3 1 67 7 143 24 296 24 280 4 295 -11 8 -34 31 -53
52 l-34 37 51 52 c29 29 52 60 52 68 0 9 -16 31 -35 50 -19 19 -35 37 -35 41
0 4 26 34 58 67 98 100 132 213 132 443 0 138 6 156 55 161 l30 3 0 75 0 75
-37 3 c-36 3 -48 14 -29 26 5 3 18 26 30 51 33 70 25 221 -16 280 -7 11 -13
27 -13 37 0 29 -20 30 -31 1 -11 -29 -47 -73 -60 -73 -4 0 -1 16 7 35 34 82
10 196 -63 304 -35 51 -43 72 -43 107 0 47 -5 51 -34 29 -31 -24 -36 -18 -36
37 0 70 -30 128 -102 199 -32 32 -63 73 -69 91 -15 48 -53 128 -61 128 -4 0
-10 -9 -13 -20z m75 -728 c-9 -42 -22 -64 -55 -98 -24 -24 -60 -50 -80 -59
-77 -31 -173 -104 -200 -151 -24 -41 -27 -54 -23 -120 3 -71 2 -74 -19 -74
-30 0 -43 28 -43 92 0 51 22 114 52 148 19 22 105 91 143 115 141 88 176 121
210 195 25 55 33 30 15 -48z m44 -245 c21 -57 20 -105 -4 -144 -27 -45 -38
-41 -32 12 6 55 -13 67 -52 33 -84 -73 -106 -100 -106 -128 0 -25 -4 -30 -25
-30 -29 0 -31 13 -10 63 15 36 51 76 133 150 24 21 47 49 52 63 14 35 25 30
44 -19z m386 -337 c0 -7 -170 -10 -490 -10 -320 0 -490 3 -490 10 0 7 170 10
490 10 320 0 490 -3 490 -10z m-806 -102 c3 -13 7 -102 9 -198 3 -154 6 -183
27 -240 13 -36 32 -78 43 -93 27 -39 13 -46 -22 -13 -39 37 -86 129 -99 192
-8 38 -17 296 -12 367 0 4 11 7 25 7 17 0 26 -7 29 -22z m117 -158 c6 -179 20
-263 60 -369 l21 -56 -25 23 c-34 32 -72 115 -90 197 -13 56 -23 282 -17 378
0 5 10 7 23 5 22 -3 22 -6 28 -178z m115 45 c1 -158 11 -287 30 -378 18 -90
18 -98 -5 -60 -32 51 -52 121 -67 233 -14 110 -19 322 -7 334 4 4 16 6 28 4
19 -3 20 -10 21 -133z m141 -132 c-6 -254 -16 -358 -31 -323 -24 56 -38 175
-43 373 l-6 217 43 0 43 0 -6 -267z m123 235 c0 -121 -49 -550 -65 -566 -13
-13 -15 10 -5 74 5 38 10 168 10 290 0 121 3 224 7 227 3 4 17 7 30 7 19 0 23
-5 23 -32z m124 24 c9 -14 -13 -281 -29 -366 -23 -118 -59 -215 -86 -232 -9
-5 -10 2 -5 27 25 119 36 208 46 370 6 101 13 190 15 197 5 14 51 17 59 4z
m100 -164 c-1 -95 -5 -186 -9 -203 -12 -48 -64 -151 -86 -171 -20 -18 -20 -18
-9 11 26 66 67 363 69 498 1 28 5 37 19 37 16 0 17 -14 16 -172z m-1902 -330
c40 -18 75 -35 78 -39 3 -3 19 -13 35 -22 39 -21 79 -56 73 -63 -3 -3 -47 -9
-98 -15 -51 -5 -99 -14 -107 -20 -9 -8 -13 -38 -13 -101 l0 -90 -30 26 c-36
30 -107 63 -156 72 -73 14 -120 135 -80 209 44 82 170 100 298 43z m3284 7
c53 -31 65 -52 66 -114 0 -77 -40 -136 -101 -147 -49 -10 -115 -40 -151 -70
l-30 -26 0 90 c0 64 -4 93 -14 101 -7 6 -55 15 -105 20 -50 5 -94 11 -97 14
-10 10 101 86 177 121 62 29 85 35 143 36 56 0 77 -5 112 -25z m-1564 -202
c10 -9 18 -20 18 -25 0 -4 -99 -8 -220 -8 l-220 0 16 25 16 25 186 0 c158 0
188 -2 204 -17z m-2314 -33 c43 -34 111 -66 164 -75 33 -6 36 -9 25 -26 -23
-38 -187 -22 -298 29 -82 38 -93 70 -29 88 72 20 98 17 138 -16z m4388 10 c24
-9 24 -10 8 -35 -9 -15 -34 -35 -54 -45 -110 -56 -310 -68 -310 -19 0 4 22 12
49 18 50 11 104 38 156 78 25 20 37 23 78 18 26 -3 59 -10 73 -15z m-4578 -66
c52 -53 125 -83 234 -95 51 -6 94 -12 95 -13 2 -1 -5 -13 -14 -26 -16 -22 -19
-23 -117 -17 -156 10 -275 51 -299 104 -10 23 -8 28 21 54 18 16 35 29 39 29
3 0 22 -16 41 -36z m4692 3 c35 -27 35 -28 10 -59 -42 -54 -191 -98 -331 -98
-59 0 -70 3 -79 21 -7 11 -10 22 -8 24 2 2 45 8 97 14 106 13 197 53 234 103
23 31 33 30 77 -5z m-2181 -24 c-47 -64 -45 -63 -217 -63 l-160 0 -26 34 c-14
19 -26 37 -26 40 0 3 100 6 221 6 209 0 221 -1 208 -17z m-2615 -77 c60 -58
143 -81 314 -90 34 -2 65 -6 68 -9 3 -3 0 -15 -6 -28 -12 -21 -16 -22 -124
-16 -119 7 -173 20 -255 61 -59 30 -79 62 -62 95 16 28 22 27 65 -13z m4876 9
c18 -34 -5 -67 -72 -98 -82 -39 -134 -49 -253 -51 -110 -1 -110 -1 -110 23 0
22 4 24 60 27 173 10 246 31 311 89 21 19 42 34 45 35 3 0 12 -11 19 -25z
m-2265 -75 c18 -20 17 -20 -196 -20 l-214 1 24 19 c21 18 39 20 196 20 159 0
173 -1 190 -20z m-2648 -37 c81 -52 165 -73 291 -73 l103 0 -3 -27 c-3 -24 -9
-29 -43 -35 -66 -11 -196 -9 -266 6 -76 16 -158 53 -166 73 -6 14 13 93 22 93
3 0 31 -17 62 -37z m4967 -13 c8 -38 7 -44 -14 -60 -13 -10 -53 -28 -89 -41
-58 -21 -84 -24 -208 -24 -78 0 -144 2 -146 5 -3 3 -8 17 -12 31 l-7 27 124 4
c141 6 203 22 275 72 26 19 53 34 58 32 6 -1 14 -22 19 -46z m-2730 -132 c11
-158 8 -310 -6 -306 -22 7 -55 387 -35 400 25 15 34 -6 41 -94z m293 -20 c-4
-62 -7 -175 -7 -250 0 -114 -3 -138 -14 -138 -8 0 -18 5 -21 11 -4 5 -4 118 0
250 7 231 8 239 28 239 19 0 20 -4 14 -112z m-2579 38 c73 -38 235 -58 372
-46 51 4 55 2 58 -18 3 -18 -5 -26 -45 -43 -127 -55 -245 -71 -333 -46 -81 24
-89 33 -96 105 -7 68 -3 72 44 48z m5029 -47 c-3 -34 -11 -67 -19 -74 -20 -20
-115 -45 -167 -45 -104 0 -281 63 -281 99 0 18 7 19 128 18 128 -1 232 16 292
49 48 25 53 20 47 -47z m-4620 -171 c-16 -15 -50 -37 -76 -49 -25 -12 -55 -27
-66 -33 -29 -14 -198 -21 -222 -8 -19 10 -69 120 -59 129 3 3 22 -1 43 -8 89
-30 266 -8 368 45 l30 16 6 -33 c5 -27 1 -36 -24 -59z m4263 46 c62 -22 91
-27 170 -27 52 1 108 6 124 12 16 6 31 9 34 7 6 -6 -24 -82 -44 -113 -13 -21
-22 -23 -94 -23 -93 0 -176 25 -257 76 -48 31 -53 37 -53 70 0 42 -2 42 120
-2z m-4206 -110 l17 -37 -44 -41 c-74 -71 -185 -110 -276 -96 -27 4 -42 15
-69 53 l-34 47 70 0 c85 0 177 27 252 74 30 19 58 34 61 35 3 1 13 -15 23 -35z
m4127 5 c77 -49 173 -79 257 -79 81 0 82 -1 25 -69 -27 -32 -31 -33 -97 -32
-50 1 -83 8 -127 27 -32 15 -59 30 -59 33 0 4 -13 15 -30 24 -43 26 -54 51
-40 92 6 19 14 35 17 35 4 0 28 -14 54 -31z m-81 -99 c0 -15 96 -77 153 -99
32 -11 73 -21 92 -21 19 0 35 -4 35 -9 0 -21 -78 -71 -110 -71 -75 0 -209 73
-240 129 -11 22 35 92 56 84 8 -3 14 -9 14 -13z m-3982 -20 c12 -16 22 -33 22
-38 0 -8 -58 -65 -92 -91 -27 -20 -120 -51 -153 -51 -30 1 -105 45 -112 66 -2
7 17 13 49 17 67 7 152 44 203 90 22 20 45 36 51 37 5 0 20 -13 32 -30z m79
-92 c13 -12 23 -28 23 -36 0 -24 -106 -119 -153 -137 l-44 -17 -53 33 -53 32
45 12 c60 15 137 61 171 101 16 19 31 34 35 34 3 0 16 -10 29 -22z m3834 -14
c43 -45 110 -85 167 -99 l44 -12 -52 -33 -53 -34 -64 33 c-57 30 -133 102
-133 126 0 10 41 55 50 55 3 0 22 -16 41 -36z m-3713 -72 l42 -29 -32 -47
c-33 -51 -108 -105 -145 -106 -23 0 -113 40 -113 49 0 4 25 21 55 39 30 18 71
53 92 77 21 24 43 44 48 45 6 0 29 -13 53 -28z m3624 -14 c19 -24 61 -59 91
-78 31 -19 56 -37 57 -41 0 -9 -89 -49 -110 -49 -37 0 -119 60 -146 106 -15
25 -24 47 -21 51 16 15 73 52 82 53 6 0 27 -19 47 -42z m-3507 -52 c44 -19 45
-40 5 -94 -30 -41 -94 -92 -117 -92 -7 0 -31 10 -53 21 l-41 22 33 19 c40 24
118 106 118 125 0 17 12 16 55 -1z m3359 -18 c25 -42 64 -80 104 -103 17 -11
32 -22 32 -25 0 -3 -20 -13 -43 -23 -51 -21 -76 -15 -130 32 -33 29 -67 85
-67 110 0 11 53 40 75 41 6 0 19 -14 29 -32z m-3194 -78 c0 -31 -54 -93 -113
-129 -37 -23 -40 -23 -73 -8 -19 9 -34 21 -34 25 0 5 16 20 35 34 33 23 95
107 95 128 0 5 20 0 45 -12 26 -13 45 -29 45 -38z m3071 15 c12 -25 44 -65 71
-89 l49 -43 -41 -18 -40 -18 -53 36 c-53 37 -97 91 -97 118 0 11 61 52 87 58
2 1 12 -19 24 -44z m-2980 -52 c36 -24 40 -30 35 -57 -6 -35 -75 -101 -114
-111 -22 -5 -113 23 -111 35 0 3 19 19 41 35 23 17 55 51 72 77 17 26 32 47
34 47 1 1 21 -11 43 -26z m2859 -24 c18 -28 50 -63 71 -78 21 -14 38 -28 39
-31 0 -3 -20 -13 -45 -24 -56 -22 -85 -13 -145 45 -52 50 -52 78 -2 112 20 14
40 26 43 26 3 1 21 -22 39 -50z m-2718 -72 l28 -23 -28 -38 c-16 -24 -46 -48
-75 -62 l-49 -22 -34 20 -35 20 23 16 c42 28 87 74 98 103 13 31 20 30 72 -14z
m2573 11 c9 -18 37 -52 63 -76 45 -41 46 -43 28 -57 -26 -20 -52 -19 -103 5
-39 17 -83 69 -83 95 0 8 66 63 77 65 1 0 10 -15 18 -32z m-2447 -120 c4 -19
-37 -62 -83 -88 -45 -25 -50 -25 -93 2 l-35 21 36 19 c20 10 53 38 73 63 l38
45 30 -24 c17 -13 32 -30 34 -38z m2340 26 c13 -19 43 -47 67 -62 49 -29 54
-37 28 -46 -10 -3 -25 -11 -34 -17 -13 -10 -24 -9 -50 2 -35 14 -109 75 -109
90 0 8 61 69 70 69 3 0 15 -16 28 -36z m-2247 -142 c-16 -30 -58 -53 -109 -59
-39 -4 -50 -2 -66 16 -18 20 -18 21 6 30 13 5 44 29 68 54 l45 44 33 -33 c27
-27 31 -37 23 -52z m2224 -6 l39 -19 -23 -18 c-38 -31 -112 -20 -161 24 l-31
28 33 38 32 39 36 -37 c20 -20 53 -45 75 -55z m-885 -84 c50 -103 68 -162 80
-265 19 -161 -3 -294 -70 -432 -44 -89 -125 -205 -149 -213 -5 -2 -7 16 -5 40
20 235 36 431 44 573 6 94 15 213 20 265 5 52 10 106 10 120 l0 25 20 -25 c10
-14 33 -53 50 -88z m-535 -123 c8 -118 24 -340 34 -494 11 -154 18 -282 15
-285 -7 -6 -31 25 -87 110 -151 227 -175 488 -70 736 33 77 81 159 89 151 3
-3 12 -101 19 -218z m-1406 168 c56 -30 191 -120 252 -169 91 -73 119 -200 65
-293 -22 -37 -39 -52 -82 -71 -66 -29 -112 -30 -184 -4 -70 25 -127 83 -170
168 -30 60 -33 76 -34 157 -1 56 4 103 13 125 15 38 73 121 81 117 3 -1 29
-15 59 -30z m3352 1 c16 -18 38 -58 50 -88 29 -76 23 -193 -15 -277 -52 -112
-162 -193 -265 -193 -62 0 -132 35 -166 83 -27 38 -30 50 -30 117 0 121 32
162 228 289 43 28 81 51 85 51 4 0 23 11 42 25 19 13 37 24 39 25 2 0 16 -15
32 -32z m-1667 -1948 c-1 -44 -39 -150 -54 -150 -9 0 -48 93 -56 137 -11 55
-1 64 58 61 l53 -3 -1 -45z"/>
<path d="M7407 8498 c-32 -24 -81 -60 -110 -81 -102 -74 -203 -146 -255 -184
-52 -37 -182 -132 -192 -140 -6 -6 43 -93 53 -93 5 0 41 21 81 46 39 26 100
66 136 89 405 263 433 283 447 322 18 54 17 61 -17 67 -16 3 -43 8 -58 11 -23
5 -40 -3 -85 -37z"/>
<path d="M4512 8503 c-30 -2 -55 -9 -58 -17 -2 -6 7 -38 20 -69 18 -40 37 -63
63 -81 83 -53 644 -366 657 -366 8 0 16 16 20 40 6 36 3 44 -21 65 -16 13 -31
25 -35 25 -4 0 -36 21 -72 48 -35 26 -113 81 -171 122 -59 41 -124 87 -144
101 -90 63 -202 139 -204 137 -1 -1 -26 -3 -55 -5z"/>
<path d="M7630 8197 c-14 -6 -56 -25 -95 -43 -38 -17 -128 -58 -200 -89 -71
-31 -159 -71 -195 -87 -36 -17 -99 -45 -141 -63 -42 -18 -90 -40 -107 -49
l-30 -15 17 -48 c9 -26 17 -50 18 -52 1 -2 17 3 35 12 18 8 44 18 58 22 14 4
30 11 35 15 6 4 44 19 85 33 41 15 113 41 160 60 47 19 141 55 210 82 241 92
230 87 262 133 16 24 27 49 24 57 -3 8 -23 19 -46 25 -23 6 -47 13 -53 15 -7
2 -23 -1 -37 -8z"/>
<path d="M4337 8191 c-21 -3 -38 -10 -38 -14 -1 -17 86 -117 111 -126 14 -5
34 -12 45 -16 78 -29 187 -69 290 -108 66 -25 188 -70 270 -101 83 -31 158
-61 168 -66 27 -16 37 -3 37 50 0 49 0 50 -47 70 -27 12 -61 27 -78 35 -76 35
-187 85 -191 85 -2 0 -104 45 -228 100 -231 103 -243 106 -339 91z"/>
<path d="M4193 7838 c-24 -16 -43 -35 -43 -42 0 -7 21 -31 48 -53 54 -45 84
-52 356 -79 88 -8 196 -20 240 -25 137 -16 429 -49 438 -49 4 0 8 17 8 39 0
34 -3 39 -27 44 -211 46 -715 150 -785 162 -42 8 -94 18 -115 24 -55 16 -73
13 -120 -21z"/>
<path d="M7768 7825 c-5 -5 -66 -17 -383 -75 -88 -17 -207 -39 -265 -50 -58
-12 -134 -25 -170 -31 -90 -13 -90 -13 -90 -60 l0 -42 107 7 c95 5 277 23 568
56 50 5 137 14 195 20 104 11 105 12 148 53 23 23 42 46 42 52 -1 28 -133 89
-152 70z"/>
<path d="M4098 7511 c-21 -18 -38 -39 -38 -46 0 -8 19 -30 43 -50 l42 -37 115
6 c63 4 283 13 488 21 205 8 406 17 447 21 l75 7 0 38 c0 21 -4 40 -9 44 -6 3
-212 10 -458 15 -246 6 -497 11 -558 13 l-110 2 -37 -34z"/>
<path d="M6816 7449 c-4 -23 -5 -43 -4 -44 2 -2 102 -10 223 -19 121 -9 270
-20 330 -26 61 -5 193 -14 295 -20 102 -6 197 -12 211 -15 26 -4 109 41 125
67 4 5 -13 30 -37 54 l-43 44 -547 0 -546 0 -7 -41z"/>
<path d="M5200 7359 c-47 -10 -123 -26 -170 -34 -47 -9 -132 -26 -190 -39 -58
-13 -157 -33 -220 -45 -63 -12 -142 -29 -175 -36 -33 -8 -134 -29 -225 -47
-165 -32 -165 -32 -202 -72 -21 -23 -38 -44 -38 -47 0 -4 37 -18 83 -33 l82
-26 95 26 c52 14 136 36 185 49 214 57 461 124 787 213 146 39 154 45 122 90
-18 26 -22 26 -134 1z"/>
<path d="M6731 7346 c-15 -20 -31 -80 -24 -87 5 -4 73 -22 153 -39 80 -18 183
-41 230 -52 47 -10 105 -23 130 -28 25 -4 95 -20 155 -35 61 -14 171 -39 245
-56 74 -16 175 -38 225 -49 l89 -20 53 27 c29 16 53 32 53 36 0 14 -38 83 -52
94 -12 9 -284 60 -478 89 -47 7 -150 24 -230 38 -80 14 -201 35 -270 46 -69
11 -158 26 -197 34 -53 9 -75 10 -82 2z"/>
<path d="M2823 9798 l-53 -52 137 -138 136 -137 -7 -47 c-3 -26 -6 -70 -6 -98
l0 -51 -132 132 c-73 72 -143 136 -156 143 -37 18 -97 14 -149 -11 -60 -29
-183 -150 -213 -209 -53 -104 -46 -163 30 -242 l50 -52 25 24 25 23 0 -22 c0
-38 26 -74 113 -158 98 -94 141 -114 205 -95 51 15 108 72 123 122 24 80 -39
172 -126 185 -34 5 -48 1 -90 -26 l-49 -31 -27 32 c-33 39 -40 72 -24 104 12
22 10 27 -21 57 l-34 33 -33 -32 c-39 -38 -43 -38 -57 -12 -31 57 104 192 169
169 15 -5 112 -95 216 -199 l190 -190 56 56 57 56 -19 42 c-24 54 -25 81 -1
71 49 -20 91 -17 135 8 136 80 76 287 -83 287 -43 0 -48 3 -54 25 -6 22 -251
274 -274 283 -4 1 -31 -21 -59 -50z"/>
<path d="M9447 9447 c-40 -17 -437 -360 -434 -375 1 -6 25 -39 52 -71 54 -64
68 -69 220 -91 163 -23 241 -7 303 64 25 29 32 46 32 79 0 116 -136 191 -220
121 -40 -34 -63 -79 -58 -115 4 -28 3 -29 -36 -28 -23 1 -54 4 -70 8 -27 6
-24 10 105 122 74 63 146 123 161 133 38 25 76 15 84 -22 23 -101 21 -99 79
-122 65 -26 82 -49 63 -84 -7 -14 -100 -99 -205 -191 -106 -91 -193 -169 -193
-174 0 -4 22 -32 49 -61 l48 -55 209 181 c222 191 254 229 254 307 0 21 -9 60
-21 87 -20 46 -25 51 -89 76 -69 27 -69 27 -79 76 -6 27 -11 55 -11 62 0 16
-36 49 -77 70 -37 19 -126 20 -166 3z"/>
<path d="M2095 8904 c-54 -28 -92 -62 -140 -126 -128 -169 -159 -334 -78 -410
16 -14 129 -89 253 -167 l224 -140 49 75 48 76 -78 82 c-43 45 -85 95 -93 110
-13 25 -13 29 2 40 26 19 58 79 58 111 0 95 -126 168 -207 120 -79 -46 -99
-143 -49 -229 l28 -48 -59 37 c-68 43 -93 69 -93 99 0 29 51 134 85 174 26 31
73 62 93 62 5 0 114 -66 242 -146 128 -80 236 -142 240 -137 4 4 24 34 44 65
l36 57 -248 155 c-267 168 -288 176 -357 140z"/>
<path d="M10420 8828 c-57 -30 -80 -73 -70 -129 9 -50 61 -106 106 -115 37 -7
97 18 119 49 14 20 15 19 52 -22 27 -29 48 -44 73 -47 34 -6 36 -4 49 33 8 21
16 43 18 49 3 7 -5 10 -21 7 -36 -7 -66 15 -131 97 -55 69 -96 100 -132 100
-10 0 -39 -10 -63 -22z"/>
<path d="M10000 8784 c-32 -6 -110 -34 -110 -40 0 -3 24 -58 54 -123 71 -152
84 -202 62 -236 -9 -13 -30 -32 -47 -41 -31 -15 -31 -15 -67 24 -42 45 -83 58
-139 43 -95 -26 -139 -131 -93 -221 32 -63 89 -94 166 -91 33 1 228 113 277
159 62 59 55 152 -23 325 -25 55 -21 65 16 49 26 -12 61 -79 100 -192 19 -55
80 -130 105 -130 8 0 30 24 49 52 27 39 31 53 20 56 -31 11 -58 52 -93 144
-55 141 -121 208 -217 221 -19 3 -46 3 -60 1z"/>
<path d="M1259 6873 c-72 -70 -124 -129 -131 -150 -7 -20 -19 -33 -30 -33 -10
0 -76 -60 -147 -132 l-130 -133 127 -128 c70 -70 136 -130 148 -133 12 -3 26
-20 33 -39 7 -22 56 -75 137 -151 68 -64 126 -115 129 -113 152 145 255 256
255 276 0 17 6 23 22 23 22 0 278 244 278 265 0 21 -256 265 -278 265 -17 0
-22 6 -22 27 0 21 -26 52 -127 149 -71 68 -132 123 -136 124 -5 0 -62 -52
-128 -117z m235 -71 c53 -51 96 -98 96 -105 0 -6 -19 -30 -41 -53 -41 -42 -42
-42 -75 -28 -40 17 -119 18 -163 3 -29 -10 -35 -8 -76 26 -25 20 -45 44 -45
54 0 20 185 204 200 199 4 -2 52 -45 104 -96z m-324 -214 c22 -23 40 -45 40
-49 0 -4 -7 -23 -15 -42 -19 -45 -19 -100 0 -151 l14 -40 -45 -45 -45 -45
-104 104 -105 104 93 96 c96 99 107 110 119 110 4 0 25 -19 48 -42z m594 -57
c84 -84 97 -101 88 -117 -6 -11 -51 -59 -101 -107 -99 -97 -99 -97 -154 -39
l-29 30 16 46 c20 60 20 105 0 157 l-17 40 44 45 c24 24 46 44 49 44 3 0 50
-44 104 -99z m-304 17 c52 -36 73 -71 73 -121 0 -89 -67 -152 -154 -144 -61 5
-103 36 -124 91 -48 124 97 247 205 174z m-75 -332 c28 0 65 6 84 13 32 14 33
14 79 -32 l47 -47 -102 -102 -101 -101 -101 94 c-56 51 -101 100 -101 108 0 9
19 34 42 58 41 42 41 42 72 26 17 -9 53 -16 81 -17z"/>
<path d="M10622 6875 c-81 -78 -124 -127 -132 -150 -8 -23 -18 -35 -30 -35 -9
0 -76 -60 -148 -132 l-131 -133 127 -128 c70 -70 137 -130 149 -133 13 -4 26
-18 33 -38 6 -21 55 -74 136 -150 l125 -118 112 107 c143 138 147 143 147 171
0 18 5 24 22 24 14 0 65 43 150 127 70 70 128 132 128 138 0 17 -243 253 -271
264 -17 6 -28 19 -32 38 -4 20 -43 64 -130 146 -69 64 -127 117 -130 117 -3 0
-59 -52 -125 -115z m229 -67 c54 -51 99 -100 99 -108 0 -8 -19 -33 -41 -56
-41 -42 -42 -42 -75 -28 -40 17 -119 18 -163 3 -29 -10 -35 -8 -75 27 -24 22
-45 47 -45 56 -1 13 183 198 197 198 2 0 48 -42 103 -92z m-327 -209 c44 -38
50 -57 31 -102 -19 -47 -19 -96 1 -147 l17 -41 -39 -40 c-21 -21 -45 -39 -54
-39 -8 0 -59 44 -112 98 l-98 97 102 103 c56 56 105 102 109 102 5 0 24 -14
43 -31z m604 -72 l102 -103 -104 -103 c-102 -100 -105 -102 -128 -87 -13 9
-34 29 -46 45 -21 28 -21 31 -6 68 19 44 15 136 -7 171 -12 20 -10 25 31 67
24 25 47 45 50 45 3 0 51 -46 108 -103z m-307 21 c130 -73 78 -268 -72 -268
-126 0 -192 156 -102 242 54 52 113 61 174 26z m-76 -332 c28 0 65 6 82 13 31
12 34 11 78 -24 25 -21 45 -43 45 -49 0 -6 -45 -56 -100 -111 l-99 -99 -98 95
c-54 52 -100 100 -101 108 -2 7 15 33 39 57 42 43 42 43 73 27 17 -9 53 -16
81 -17z"/>
<path d="M10035 4997 c-36 -96 -43 -128 -32 -132 167 -60 209 -75 215 -75 8 0
52 108 52 127 0 6 -8 13 -17 16 -10 2 -62 21 -116 40 -68 25 -99 32 -102 24z"/>
<path d="M10355 4789 c-15 -38 -26 -71 -24 -73 2 -2 94 -36 204 -76 110 -40
206 -76 213 -80 10 -5 4 -11 -19 -20 -18 -8 -57 -38 -87 -69 l-55 -54 -106 37
c-123 42 -165 45 -211 14 -55 -38 -74 -71 -78 -141 -4 -57 -1 -66 23 -95 37
-44 75 -62 131 -62 41 0 51 5 83 38 20 20 41 46 46 56 8 14 17 17 33 12 19 -7
22 -14 22 -67 0 -70 17 -108 62 -142 46 -35 126 -60 166 -52 74 14 141 108
142 199 0 41 -5 53 -33 81 -20 20 -55 40 -90 51 -31 10 -57 21 -57 25 0 4 16
21 35 38 42 37 119 61 194 61 l56 0 27 74 26 73 -333 122 c-183 66 -335 121
-338 121 -3 0 -17 -32 -32 -71z"/>
<path d="M1545 4836 c-17 -7 -44 -28 -59 -47 -25 -30 -28 -39 -24 -97 3 -58 1
-65 -18 -72 -18 -7 -26 -1 -52 35 -55 78 -151 94 -253 42 -63 -32 -84 -66 -83
-135 1 -107 62 -192 136 -192 15 0 57 11 94 25 l67 25 -7 -41 c-10 -63 -50
-132 -106 -182 l-50 -45 26 -71 c14 -39 29 -71 33 -71 8 0 662 238 667 242 3
3 -44 139 -50 145 -2 3 -304 -105 -398 -142 l-37 -14 16 37 c9 20 18 70 22
111 l6 74 105 39 c75 28 115 48 140 73 33 34 35 39 35 104 0 55 -4 76 -21 98
-49 67 -121 89 -189 59z"/>
<path d="M1862 4030 c-65 -40 -90 -121 -56 -185 18 -36 35 -22 -182 -152 -90
-54 -164 -101 -164 -105 0 -7 71 -128 75 -128 1 0 24 10 51 22 40 18 67 22
144 22 102 1 164 -13 202 -44 18 -15 21 -22 12 -37 -8 -14 -137 -98 -263 -172
-11 -7 -8 -19 17 -62 18 -30 36 -60 40 -67 7 -10 46 9 163 79 150 89 209 135
209 163 0 10 10 12 41 6 50 -9 126 25 152 69 28 48 23 120 -13 169 -39 55 -81
76 -138 69 -61 -7 -104 -42 -128 -105 -1 -1 -25 9 -55 23 -30 13 -73 27 -97
31 l-42 6 97 60 c152 93 181 129 169 211 -14 89 -75 147 -156 147 -27 0 -58
-8 -78 -20z"/>
<path d="M10086 4029 c-57 -16 -116 -97 -116 -161 0 -78 79 -153 150 -145 35
4 36 4 32 -27 -2 -17 3 -60 11 -96 9 -36 14 -66 13 -67 -1 -2 -36 18 -77 43
-117 73 -144 84 -198 84 -42 0 -56 -5 -87 -32 -38 -33 -73 -97 -74 -132 0 -35
41 -105 74 -125 37 -23 111 -30 143 -13 11 6 32 25 46 42 14 16 28 30 31 30 3
0 83 -47 178 -105 95 -58 177 -104 182 -102 6 2 26 30 46 63 l36 59 -36 26
c-98 71 -189 305 -136 348 17 15 35 6 184 -86 57 -35 107 -64 112 -66 8 -2 92
125 87 129 -11 9 -290 175 -314 188 -18 9 -45 16 -60 16 -24 0 -32 7 -48 42
-11 23 -32 51 -46 61 -33 24 -95 36 -133 26z"/>
<path d="M9114 3578 c-46 -15 -124 -77 -158 -126 -26 -37 -31 -54 -34 -117 -4
-66 -1 -80 22 -119 38 -65 106 -117 159 -123 117 -14 192 116 116 201 -49 56
-110 60 -163 11 -22 -21 -28 -22 -33 -9 -3 8 -3 32 0 52 8 45 64 102 102 102
59 0 120 -54 159 -140 13 -30 37 -69 53 -87 48 -55 536 -465 570 -479 58 -25
115 -12 171 40 49 44 67 119 41 169 -50 97 -157 123 -232 57 l-32 -28 -210
178 c-198 169 -212 183 -246 250 -74 146 -173 204 -285 168z"/>
<path d="M2330 3303 c-14 -9 -35 -25 -47 -36 l-22 -20 51 -59 c45 -52 52 -57
67 -45 37 33 59 38 90 22 39 -20 81 -75 81 -106 0 -30 -27 -56 -257 -253 -95
-81 -173 -151 -173 -154 1 -4 23 -31 49 -61 l49 -54 34 28 c394 332 448 385
448 447 0 68 -111 224 -199 280 -53 33 -131 39 -171 11z"/>
<path d="M2995 3087 c-17 -8 -49 -39 -72 -70 l-42 -55 216 -162 c119 -90 224
-165 232 -167 18 -4 75 76 85 120 4 17 0 53 -9 85 -14 47 -29 68 -88 127 -40
39 -96 83 -125 99 -64 33 -151 44 -197 23z m171 -133 c47 -22 110 -86 116
-117 11 -55 -8 -51 -111 27 -55 42 -101 80 -101 85 0 26 47 28 96 5z"/>
<path d="M9165 2830 c-16 -4 -40 -12 -51 -18 -31 -16 -83 -78 -90 -107 -10
-39 4 -91 33 -125 54 -65 124 -77 189 -34 l39 27 48 -54 c126 -140 141 -160
130 -177 -19 -31 -54 -24 -224 49 -93 40 -171 70 -173 68 -2 -2 -6 -35 -8 -74
l-3 -69 160 -68 c212 -89 254 -89 348 1 69 65 85 127 48 186 -18 30 -290 334
-329 368 -26 23 -78 35 -117 27z"/>
<path d="M2743 2787 l-45 -43 60 -52 59 -52 19 21 c45 50 90 42 159 -27 60
-60 52 -81 -102 -253 l-40 -45 -32 23 c-74 53 -171 28 -211 -54 -24 -50 -25
-86 -4 -132 21 -44 67 -79 125 -94 76 -20 110 3 279 197 80 91 151 178 159
192 8 15 14 46 13 70 0 57 -53 135 -135 204 -84 70 -125 88 -197 88 -58 0 -63
-2 -107 -43z"/>
<path d="M7793 2433 l-63 -35 20 -38 c25 -49 25 -50 -5 -50 -55 0 -200 -90
-245 -151 -45 -62 -48 -107 -11 -184 16 -36 35 -65 42 -65 13 0 487 249 493
258 4 9 -150 296 -161 299 -4 1 -36 -14 -70 -34z m42 -237 c18 -13 17 -14 -16
-31 -19 -10 -71 -37 -116 -62 -78 -42 -82 -43 -88 -23 -10 32 19 66 83 99 63
33 108 38 137 17z"/>
<path d="M8658 2432 c-32 -20 -58 -40 -58 -44 0 -4 63 -105 141 -225 150 -232
160 -249 150 -275 -7 -20 -139 -107 -162 -108 -21 0 -77 62 -85 96 -7 29 12
54 69 90 20 14 37 29 37 34 0 15 -43 80 -53 80 -4 0 -34 -18 -66 -39 -71 -49
-99 -57 -126 -37 -19 15 -19 15 9 16 16 0 44 11 63 26 83 63 84 159 3 228 -62
52 -184 20 -253 -66 -62 -77 -40 -195 50 -279 41 -38 48 -41 94 -37 44 3 48 1
43 -16 -16 -48 -5 -88 40 -156 82 -124 130 -128 289 -27 156 100 187 125 204
164 28 68 15 99 -155 363 -87 134 -162 245 -168 246 -5 2 -35 -14 -66 -34z"/>
<path d="M3331 2365 c-74 -67 -77 -160 -5 -220 l36 -30 -107 -175 c-59 -96
-109 -178 -111 -182 -3 -4 27 -25 65 -48 l70 -41 73 77 c94 98 213 194 300
239 71 38 105 42 100 12 -2 -10 -62 -115 -134 -234 l-132 -216 27 -21 c15 -12
44 -31 66 -43 l39 -22 34 57 c19 31 92 151 161 266 116 190 127 212 127 256 0
37 -6 55 -25 78 -64 76 -130 72 -301 -17 -105 -54 -114 -57 -98 -33 96 145 99
229 8 298 -27 21 -50 29 -94 32 -55 4 -59 3 -99 -33z"/>
<path d="M8002 2103 c-56 -23 -63 -28 -57 -47 21 -64 18 -85 -18 -121 l-35
-35 29 -40 c16 -22 37 -40 48 -40 10 0 25 -8 33 -17 22 -26 131 -292 131 -320
0 -32 -5 -36 -86 -67 -66 -26 -70 -27 -88 -10 -39 36 -44 85 -19 195 35 153
11 244 -76 295 -65 38 -143 34 -235 -13 -79 -41 -112 -78 -123 -138 -16 -82
43 -176 118 -191 53 -9 123 21 153 65 28 41 31 115 7 149 -9 13 -14 26 -11 29
9 8 38 -43 43 -78 4 -24 -4 -60 -25 -117 -17 -46 -31 -94 -31 -107 0 -36 47
-154 76 -192 54 -71 99 -72 264 -3 154 64 165 72 186 125 22 59 16 83 -67 282
-67 161 -98 213 -126 213 -16 0 -16 1 2 36 8 16 15 44 15 61 0 34 -27 113 -39
113 -3 -1 -34 -13 -69 -27z"/>
<path d="M5824 2001 c-11 -5 -33 -24 -48 -42 -25 -30 -28 -39 -24 -91 5 -67
23 -92 85 -120 82 -36 240 -33 365 8 69 22 124 77 148 146 11 32 20 70 20 84
l0 27 -72 -7 c-75 -7 -88 -15 -88 -54 0 -33 -58 -88 -105 -101 -68 -19 -72
-17 -77 40 -4 40 -12 58 -36 82 -26 26 -40 31 -89 34 -32 1 -67 -1 -79 -6z"/>
<path d="M4165 1927 c-53 -30 -105 -127 -105 -198 0 -40 5 -54 30 -83 l31 -34
-23 -7 c-52 -16 -96 -83 -118 -178 -22 -102 11 -136 207 -210 156 -60 195 -67
243 -42 58 30 71 60 254 546 l25 66 -71 28 c-56 22 -72 25 -78 14 -5 -7 -50
-123 -101 -257 -67 -175 -99 -248 -115 -258 -19 -13 -29 -12 -100 16 -109 43
-112 47 -90 115 23 75 45 85 123 57 31 -12 60 -19 64 -16 4 2 14 24 22 48 l15
45 -71 27 c-82 30 -107 49 -107 76 0 18 3 18 31 -6 41 -35 132 -37 173 -5 62
49 76 144 29 200 -62 74 -190 100 -268 56z"/>
<path d="M7133 1732 c-34 -10 -64 -20 -68 -24 -8 -8 130 -540 152 -587 23 -48
67 -71 133 -71 106 0 165 53 165 148 0 99 -67 160 -158 147 l-42 -6 -44 173
c-61 239 -61 238 -69 237 -4 0 -35 -8 -69 -17z"/>
<path d="M4894 1710 c-54 -17 -114 -104 -114 -165 0 -6 34 -18 75 -26 l75 -16
11 39 c13 49 41 63 104 53 60 -8 95 -41 90 -81 -2 -16 -26 -137 -54 -268 -28
-132 -51 -247 -51 -256 0 -13 17 -20 71 -29 38 -7 72 -11 74 -9 10 10 118 538
118 579 1 80 -41 122 -163 159 -75 24 -192 34 -236 20z"/>
<path d="M6755 1652 c-16 -2 -33 -7 -37 -11 -4 -4 6 -125 23 -269 17 -144 28
-273 25 -286 -7 -29 -16 -32 -114 -46 -93 -13 -107 -6 -121 61 -9 43 -9 56 4
75 16 25 27 29 99 39 l48 7 -6 36 c-3 20 -6 43 -6 50 0 10 -19 12 -92 6 -85
-6 -95 -5 -111 14 -18 19 -17 20 28 14 124 -14 209 111 145 215 -30 51 -59 64
-138 64 -145 1 -222 -81 -209 -222 7 -75 32 -119 83 -145 l41 -20 -24 -35
c-23 -31 -24 -41 -19 -112 6 -91 27 -142 70 -169 27 -17 42 -18 116 -13 123 9
275 32 298 44 30 16 62 66 69 106 3 19 -10 163 -28 320 l-34 286 -40 -3 c-22
-2 -53 -4 -70 -6z"/>
<path d="M5639 1596 c-84 -22 -139 -79 -139 -144 0 -27 3 -30 46 -36 85 -11
103 -8 110 18 13 53 78 75 169 56 71 -15 95 -44 95 -114 0 -28 -3 -61 -6 -73
-6 -20 -8 -20 -37 14 -82 93 -225 108 -311 32 -50 -43 -67 -97 -73 -225 -7
-128 6 -169 63 -205 48 -29 130 -35 174 -12 41 21 80 84 80 131 0 78 -58 142
-128 142 -32 0 -33 1 -28 33 8 50 16 66 37 72 50 16 117 -53 176 -180 23 -51
27 -72 26 -141 l-1 -82 77 -4 c42 -3 77 -4 77 -4 1 1 9 134 18 296 18 344 18
344 -70 392 -82 45 -254 61 -355 34z"/>
</g>
</svg>
